first trial																																					
nRows=17																																					
nColumns=38																																					
																																					
# SIMM Motion File Header:																																					
name MVN-014																																					
datacolumns 38																																					
datarows 17																																					
otherdata 1																																					
range 31.948 32.215																																					
endheader																																					
time	pelvis_tilt	pelvis_list	pelvis_rotation	pelvis_tx	pelvis_ty	pelvis_tz	hip_flexion_r	hip_adduction_r	hip_rotation_r	knee_angle_r	ankle_angle_r	subtalar_angle_r	mtp_angle_r	hip_flexion_l	hip_adduction_l	hip_rotation_l	knee_angle_l	ankle_angle_l	subtalar_angle_l	mtp_angle_l	lumbar_extension	lumbar_bending	lumbar_rotation	arm_flex_r	arm_add_r	arm_rot_r	elbow_flex_r	pro_sup_r	wrist_flex_r	wrist_dev_r	arm_flex_l	arm_add_l	arm_rot_l	elbow_flex_l	pro_sup_l	wrist_flex_l	wrist_dev_l
31.948	21.8119	1.1278	88.5218	-0.2959	0.7817	0.4468	25.4404	-12.6572	8.6624	25.897	-20.6925	9.9894	0	30.512	-3.4572	0.9393	40.5119	-12.8917	-0.9027	0	-5.8504	1.3673	-0.3719	51.0707	-23.2541	11.7337	116.2803	-1.2162	-26.6346	-33.9968	18.8395	-32.4099	2.7167	33.3636	108.2355	-6.7545	10.4906
31.965	21.8129	1.1215	88.5292	-0.2959	0.7817	0.4467	25.4387	-12.6585	8.6631	25.8997	-20.6906	9.9851	0	30.5155	-3.4545	0.9445	40.5189	-12.8888	-0.8992	0	-5.8455	1.3684	-0.37	51.1458	-23.3627	11.7448	116.8552	-1.3631	-26.6502	-34.095	18.8356	-32.404	2.7241	33.3664	108.2417	-6.7514	10.4893
31.982	21.8166	1.1152	88.5364	-0.296	0.7817	0.4467	25.4356	-12.6606	8.6612	25.903	-20.6891	9.9824	0	30.5179	-3.4507	0.9532	40.5275	-12.8867	-0.8949	0	-5.8435	1.3704	-0.3722	51.2301	-23.476	11.7557	117.4247	-1.5162	-26.6775	-34.1951	18.8301	-32.3987	2.7368	33.3726	108.2426	-6.7488	10.4875
31.998	21.8211	1.1092	88.5432	-0.296	0.7817	0.4468	25.4325	-12.6632	8.6563	25.906	-20.6884	9.9821	0	30.5205	-3.4465	0.9625	40.5365	-12.884	-0.8931	0	-5.8428	1.3722	-0.3762	51.3092	-23.575	11.7594	117.98	-1.6485	-26.6684	-34.2866	18.8265	-32.3969	2.7458	33.3785	108.236	-6.7481	10.4878
32.015	21.8256	1.1037	88.5493	-0.2961	0.7816	0.4468	25.43	-12.6667	8.6471	25.9081	-20.6895	9.9858	0	30.524	-3.4419	0.9708	40.5458	-12.8802	-0.8957	0	-5.844	1.3726	-0.3819	51.3803	-23.6452	11.7552	118.5178	-1.7434	-26.6107	-34.3648	18.8261	-32.4024	2.7472	33.3839	108.2137	-6.7516	10.4926
32.032	21.8308	1.0984	88.5554	-0.2961	0.7816	0.4468	25.4276	-12.6707	8.635	25.9099	-20.6914	9.992	0	30.5277	-3.4369	0.9796	40.5554	-12.8758	-0.9007	0	-5.8465	1.3726	-0.3894	51.446	-23.7011	11.7436	119.0416	-1.8179	-26.5167	-34.4353	18.8276	-32.4115	2.7449	33.3891	108.1837	-6.757	10.4995
32.048	21.8366	1.0929	88.5608	-0.2962	0.7815	0.4469	25.4248	-12.6741	8.6237	25.912	-20.6926	9.9969	0	30.5306	-3.4325	0.9901	40.5648	-12.8716	-0.9054	0	-5.8481	1.3744	-0.3968	51.5006	-23.7663	11.7188	119.5529	-1.8959	-26.3742	-34.5019	18.8304	-32.4158	2.7419	33.3901	108.1681	-6.7594	10.5039
32.065	21.8426	1.0865	88.5663	-0.2962	0.7815	0.4469	25.4217	-12.6762	8.6138	25.9153	-20.6914	9.9987	0	30.5329	-3.4293	1.004	40.574	-12.8676	-0.9086	0	-5.8466	1.3793	-0.403	51.5389	-23.8523	11.6706	120.046	-1.9962	-26.1401	-34.5624	18.8367	-32.4091	2.7379	33.3831	108.1847	-6.7581	10.5037
32.082	21.8493	1.08	88.5714	-0.2962	0.7814	0.4469	25.4183	-12.6777	8.6047	25.919	-20.6894	9.9991	0	30.5343	-3.4268	1.0196	40.583	-12.8636	-0.9114	0	-5.8442	1.3858	-0.4091	51.566	-23.9475	11.6091	120.5266	-2.101	-25.8572	-34.6176	18.8442	-32.3977	2.7332	33.372	108.2156	-6.7538	10.501
32.098	21.8578	1.075	88.575	-0.2963	0.7814	0.4469	25.4135	-12.679	8.5981	25.922	-20.6894	10.0003	0	30.5332	-3.424	1.0326	40.5909	-12.8606	-0.9142	0	-5.8442	1.3918	-0.4166	51.5914	-24.0417	11.5591	121.0132	-2.179	-25.6426	-34.6756	18.8459	-32.3919	2.7318	33.3652	108.2289	-6.7436	10.4967
32.115	21.8688	1.0727	88.5759	-0.2963	0.7813	0.447	25.4065	-12.6801	8.5953	25.9235	-20.6934	10.0035	0	30.5286	-3.4205	1.0409	40.5973	-12.8589	-0.9174	0	-5.8491	1.3961	-0.4267	51.6171	-24.1331	11.5303	121.5219	-2.2214	-25.5534	-34.7459	18.837	-32.3979	2.7355	33.371	108.2086	-6.7252	10.4911
32.132	21.8817	1.0722	88.5751	-0.2963	0.7813	0.447	25.3982	-12.681	8.595	25.9244	-20.6994	10.0073	0	30.5215	-3.4167	1.0467	40.6025	-12.8581	-0.9206	0	-5.8564	1.3998	-0.4382	51.6411	-24.2234	11.5129	122.0369	-2.2367	-25.5329	-34.8193	18.8223	-32.4094	2.7424	33.3811	108.1707	-6.701	10.484
32.148	21.8953	1.072	88.5745	-0.2964	0.7812	0.4471	25.3892	-12.6816	8.5957	25.926	-20.7041	10.0093	0	30.5131	-3.4128	1.0524	40.6066	-12.8578	-0.9236	0	-5.8624	1.4037	-0.449	51.6673	-24.3068	11.5024	122.5286	-2.2189	-25.5274	-34.8765	18.8097	-32.4181	2.7511	33.3784	108.1318	-6.6749	10.4758
32.165	21.9096	1.072	88.5746	-0.2964	0.7812	0.4471	25.3796	-12.6821	8.5973	25.9291	-20.7058	10.0083	0	30.5028	-3.4088	1.0575	40.609	-12.8583	-0.9258	0	-5.8654	1.4081	-0.4589	51.6968	-24.3802	11.4967	122.9927	-2.1679	-25.5302	-34.9136	18.8015	-32.4213	2.7637	33.3521	108.0914	-6.6457	10.466
32.182	21.9247	1.0724	88.5747	-0.2964	0.7812	0.4471	25.3694	-12.6823	8.5999	25.933	-20.7061	10.0055	0	30.4911	-3.4048	1.0625	40.6101	-12.8594	-0.9278	0	-5.8671	1.4127	-0.4681	51.7286	-24.4466	11.4978	123.434	-2.0842	-25.5479	-34.9345	18.7954	-32.4217	2.7781	33.3131	108.05	-6.6146	10.455
32.198	21.939	1.072	88.5758	-0.2964	0.7811	0.4472	25.36	-12.6818	8.602	25.937	-20.7061	10.0016	0	30.481	-3.401	1.0711	40.6118	-12.8604	-0.931	0	-5.868	1.4172	-0.4754	51.7631	-24.5093	11.5078	123.8369	-1.9628	-25.5465	-34.9319	18.7922	-32.4194	2.7854	33.2767	108.0253	-6.5892	10.4447
32.215	21.952	1.0702	88.5787	-0.2964	0.7811	0.4472	25.3523	-12.6801	8.6028	25.9416	-20.7057	9.9959	0	30.4746	-3.3973	1.0872	40.6155	-12.8607	-0.9369	0	-5.8684	1.422	-0.4799	51.8004	-24.571	11.5316	124.1935	-1.791	-25.5111	-34.9055	18.7934	-32.4129	2.7798	33.2478	108.0283	-6.574	10.4355
